<?xml version="1.0" encoding="UTF-8" standalone="no"?>
<!-- Created with Inkscape (http://www.inkscape.org/) -->

<svg
   xmlns:dc="http://purl.org/dc/elements/1.1/"
   xmlns:cc="http://creativecommons.org/ns#"
   xmlns:rdf="http://www.w3.org/1999/02/22-rdf-syntax-ns#"
   xmlns:svg="http://www.w3.org/2000/svg"
   xmlns="http://www.w3.org/2000/svg"
   xmlns:xlink="http://www.w3.org/1999/xlink"
   xmlns:sodipodi="http://sodipodi.sourceforge.net/DTD/sodipodi-0.dtd"
   xmlns:inkscape="http://www.inkscape.org/namespaces/inkscape"
   width="178mm"
   height="90.000031mm"
   viewBox="0 0 630.70866 318.89774"
   id="svg5873"
   version="1.1"
   inkscape:version="0.91 r13725"
   sodipodi:docname="case-layered-v0.4-export.svg">
  <defs
     id="defs5875" />
  <sodipodi:namedview
     id="base"
     pagecolor="#ffffff"
     bordercolor="#666666"
     borderopacity="1.0"
     inkscape:pageopacity="0.0"
     inkscape:pageshadow="2"
     inkscape:zoom="1.4216822"
     inkscape:cx="315.35351"
     inkscape:cy="235.63022"
     inkscape:document-units="mm"
     inkscape:current-layer="layer7"
     showgrid="false"
     inkscape:window-width="1920"
     inkscape:window-height="1056"
     inkscape:window-x="0"
     inkscape:window-y="24"
     inkscape:window-maximized="1"
     fit-margin-top="2"
     fit-margin-left="2"
     fit-margin-right="2"
     fit-margin-bottom="2"
     showguides="true"
     inkscape:guide-bbox="true">
    <sodipodi:guide
       position="568.16556,225.33886"
       orientation="1,0"
       id="guide4540" />
    <sodipodi:guide
       position="542.84313,192.63499"
       orientation="0,1"
       id="guide4542" />
  </sodipodi:namedview>
  <metadata
     id="metadata5878">
    <rdf:RDF>
      <cc:Work
         rdf:about="">
        <dc:format>image/svg+xml</dc:format>
        <dc:type
           rdf:resource="http://purl.org/dc/dcmitype/StillImage" />
        <dc:title></dc:title>
      </cc:Work>
    </rdf:RDF>
  </metadata>
  <g
     inkscape:groupmode="layer"
     id="layer2"
     inkscape:label="Material"
     style="display:inline"
     sodipodi:insensitive="true">
    <path
       style="fill:none;fill-opacity:0.24747476;stroke:#ff0000;stroke-width:0.35433072;stroke-miterlimit:4;stroke-dasharray:none;stroke-opacity:1"
       d="M 191.33789,-56.693359 A 28.346457,28.346457 0 0 0 162.99219,-28.345703 28.346457,28.346457 0 0 0 191.33789,0 28.346457,28.346457 0 0 0 219.68555,-28.345703 28.346457,28.346457 0 0 0 191.33789,-56.693359 Z m -6.37695,21.96875 12.75586,0 0,12.755859 -12.75586,0 0,-12.755859 z M 7.0859375,7.0859375 l 0,53.1503905 13.8203125,0 0,42.519532 -13.8203125,0 0,53.15039 148.8203125,0 0,-148.8203125 -148.8203125,0 z m 155.9062525,0 0,53.1503905 13.81836,0 0,-24.09375 121.53515,0 0,59.527344 13.46485,0 0,-88.5839845 -148.81836,0 z m 155.90625,0 0,53.1503905 13.81836,0 0,-24.09375 121.53515,0 0,90.707032 -121.53515,0 0,-24.09375 -13.81836,0 0,53.15039 148.81836,0 0,-148.8203125 -148.81836,0 z m 155.90429,0 0,53.1503905 13.81836,0 0,42.519532 -13.81836,0 0,53.15039 148.81836,0 0,-148.8203125 -148.81836,0 z M 23.03125,17.716797 a 5.3149557,5.3149557 0 0 1 5.314453,5.314453 5.3149557,5.3149557 0 0 1 -5.314453,5.314453 5.3149557,5.3149557 0 0 1 -5.314453,-5.314453 5.3149557,5.3149557 0 0 1 5.314453,-5.314453 z m 116.92969,0 a 5.3149557,5.3149557 0 0 1 5.31445,5.314453 5.3149557,5.3149557 0 0 1 -5.31445,5.314453 5.3149557,5.3149557 0 0 1 -5.31446,-5.314453 5.3149557,5.3149557 0 0 1 5.31446,-5.314453 z m 38.97656,0 a 5.3149557,5.3149557 0 0 1 5.31445,5.314453 5.3149557,5.3149557 0 0 1 -5.31445,5.314453 5.3149557,5.3149557 0 0 1 -5.31641,-5.314453 5.3149557,5.3149557 0 0 1 5.31641,-5.314453 z m 116.92773,0 a 5.3149557,5.3149557 0 0 1 5.31641,5.314453 5.3149557,5.3149557 0 0 1 -5.31641,5.314453 5.3149557,5.3149557 0 0 1 -5.31445,-5.314453 5.3149557,5.3149557 0 0 1 5.31445,-5.314453 z m 38.97657,0 a 5.3149557,5.3149557 0 0 1 5.3164,5.314453 5.3149557,5.3149557 0 0 1 -5.3164,5.314453 5.3149557,5.3149557 0 0 1 -5.31446,-5.314453 5.3149557,5.3149557 0 0 1 5.31446,-5.314453 z m 116.92968,0 a 5.3149557,5.3149557 0 0 1 5.31446,5.314453 5.3149557,5.3149557 0 0 1 -5.31446,5.314453 5.3149557,5.3149557 0 0 1 -5.31445,-5.314453 5.3149557,5.3149557 0 0 1 5.31445,-5.314453 z m 38.97657,0 a 5.3149557,5.3149557 0 0 1 5.31445,5.314453 5.3149557,5.3149557 0 0 1 -5.31445,5.314453 5.3149557,5.3149557 0 0 1 -5.31446,-5.314453 5.3149557,5.3149557 0 0 1 5.31446,-5.314453 z m 116.92968,0 a 5.3149557,5.3149557 0 0 1 5.31446,5.314453 5.3149557,5.3149557 0 0 1 -5.31446,5.314453 5.3149557,5.3149557 0 0 1 -5.3164,-5.314453 5.3149557,5.3149557 0 0 1 5.3164,-5.314453 z M 46.0625,36.142578 l 74.05469,0 0,9.566406 -74.05469,0 0,-9.566406 z m 8.859375,19.132813 59.527345,0 0,52.441409 -59.527345,0 0,-52.441409 z m 108.070315,47.480469 0,53.15039 148.81836,0 0,-49.60742 -13.46485,0 0,20.55078 -121.53515,0 0,-24.09375 -13.81836,0 z M 46.0625,117.2832 l 74.05469,0 0,9.56641 -74.05469,0 0,-9.56641 z m 457.08789,2.48047 a 3.5433071,3.5433071 0 0 1 3.54297,3.54297 3.5433071,3.5433071 0 0 1 -3.54297,3.54297 3.5433071,3.5433071 0 0 1 -3.54492,-3.54297 3.5433071,3.5433071 0 0 1 3.54492,-3.54297 z M 23.03125,134.64648 a 5.3149557,5.3149557 0 0 1 5.314453,5.31446 5.3149557,5.3149557 0 0 1 -5.314453,5.31445 5.3149557,5.3149557 0 0 1 -5.314453,-5.31445 5.3149557,5.3149557 0 0 1 5.314453,-5.31446 z m 116.92969,0 a 5.3149557,5.3149557 0 0 1 5.31445,5.31446 5.3149557,5.3149557 0 0 1 -5.31445,5.31445 5.3149557,5.3149557 0 0 1 -5.31446,-5.31445 5.3149557,5.3149557 0 0 1 5.31446,-5.31446 z m 38.97656,0 a 5.3149557,5.3149557 0 0 1 5.31445,5.31446 5.3149557,5.3149557 0 0 1 -5.31445,5.31445 5.3149557,5.3149557 0 0 1 -5.31641,-5.31445 5.3149557,5.3149557 0 0 1 5.31641,-5.31446 z m 116.92773,0 a 5.3149557,5.3149557 0 0 1 5.31641,5.31446 5.3149557,5.3149557 0 0 1 -5.31641,5.31445 5.3149557,5.3149557 0 0 1 -5.31445,-5.31445 5.3149557,5.3149557 0 0 1 5.31445,-5.31446 z m 38.97657,0 a 5.3149557,5.3149557 0 0 1 5.3164,5.31446 5.3149557,5.3149557 0 0 1 -5.3164,5.31445 5.3149557,5.3149557 0 0 1 -5.31446,-5.31445 5.3149557,5.3149557 0 0 1 5.31446,-5.31446 z m 116.92968,0 a 5.3149557,5.3149557 0 0 1 5.31446,5.31446 5.3149557,5.3149557 0 0 1 -5.31446,5.31445 5.3149557,5.3149557 0 0 1 -5.31445,-5.31445 5.3149557,5.3149557 0 0 1 5.31445,-5.31446 z m 38.97657,0 a 5.3149557,5.3149557 0 0 1 5.31445,5.31446 5.3149557,5.3149557 0 0 1 -5.31445,5.31445 5.3149557,5.3149557 0 0 1 -5.31446,-5.31445 5.3149557,5.3149557 0 0 1 5.31446,-5.31446 z m 116.92968,0 a 5.3149557,5.3149557 0 0 1 5.31446,5.31446 5.3149557,5.3149557 0 0 1 -5.31446,5.31445 5.3149557,5.3149557 0 0 1 -5.3164,-5.31445 5.3149557,5.3149557 0 0 1 5.3164,-5.31446 z m -600.5917925,28.34571 0,148.81836 148.8203125,0 0,-148.81836 -148.8203125,0 z m 155.9062525,0 0,148.81836 148.81836,0 0,-148.81836 -148.81836,0 z m 155.90625,0 0,148.81836 148.81836,0 0,-148.81836 -148.81836,0 z m 155.90429,0 0,148.81836 148.81836,0 0,-148.81836 -148.81836,0 z M 23.03125,173.62305 a 5.3149557,5.3149557 0 0 1 5.314453,5.31445 5.3149557,5.3149557 0 0 1 -5.314453,5.31445 5.3149557,5.3149557 0 0 1 -5.314453,-5.31445 5.3149557,5.3149557 0 0 1 5.314453,-5.31445 z m 116.92969,0 a 5.3149557,5.3149557 0 0 1 5.31445,5.31445 5.3149557,5.3149557 0 0 1 -5.31445,5.31445 5.3149557,5.3149557 0 0 1 -5.31446,-5.31445 5.3149557,5.3149557 0 0 1 5.31446,-5.31445 z m 38.97656,0 a 5.3149557,5.3149557 0 0 1 5.31445,5.31445 5.3149557,5.3149557 0 0 1 -5.31445,5.31445 5.3149557,5.3149557 0 0 1 -5.31641,-5.31445 5.3149557,5.3149557 0 0 1 5.31641,-5.31445 z m 116.92773,0 a 5.3149557,5.3149557 0 0 1 5.31641,5.31445 5.3149557,5.3149557 0 0 1 -5.31641,5.31445 5.3149557,5.3149557 0 0 1 -5.31445,-5.31445 5.3149557,5.3149557 0 0 1 5.31445,-5.31445 z m 38.97657,0 a 5.3149557,5.3149557 0 0 1 5.3164,5.31445 5.3149557,5.3149557 0 0 1 -5.3164,5.31445 5.3149557,5.3149557 0 0 1 -5.31446,-5.31445 5.3149557,5.3149557 0 0 1 5.31446,-5.31445 z m 116.92968,0 a 5.3149557,5.3149557 0 0 1 5.31446,5.31445 5.3149557,5.3149557 0 0 1 -5.31446,5.31445 5.3149557,5.3149557 0 0 1 -5.31445,-5.31445 5.3149557,5.3149557 0 0 1 5.31445,-5.31445 z m 38.97657,0 a 5.3149557,5.3149557 0 0 1 5.31445,5.31445 5.3149557,5.3149557 0 0 1 -5.31445,5.31445 5.3149557,5.3149557 0 0 1 -5.31446,-5.31445 5.3149557,5.3149557 0 0 1 5.31446,-5.31445 z m 116.92968,0 a 5.3149557,5.3149557 0 0 1 5.31446,5.31445 5.3149557,5.3149557 0 0 1 -5.31446,5.31445 5.3149557,5.3149557 0 0 1 -5.3164,-5.31445 5.3149557,5.3149557 0 0 1 5.3164,-5.31445 z m -430.86718,17.71484 103.46484,0 0,92.12695 -103.46484,0 0,-92.12695 z m 155.90625,0 103.46484,0 0,92.12695 -103.46484,0 0,-92.12695 z m 181.0625,0.70899 78.30664,0 0,9.5664 -78.30664,0 0,-9.5664 z M 83.267578,205.51172 A 31.889763,31.889763 0 0 1 115.1582,237.40234 31.889763,31.889763 0 0 1 83.267578,269.29102 31.889763,31.889763 0 0 1 51.378906,237.40234 31.889763,31.889763 0 0 1 83.267578,205.51172 Z m 430.511722,67.67773 78.30664,0 0,9.56641 -78.30664,0 0,-9.56641 z M 23.03125,290.55078 a 5.3149557,5.3149557 0 0 1 5.314453,5.31445 5.3149557,5.3149557 0 0 1 -5.314453,5.31641 5.3149557,5.3149557 0 0 1 -5.314453,-5.31641 5.3149557,5.3149557 0 0 1 5.314453,-5.31445 z m 116.92969,0 a 5.3149557,5.3149557 0 0 1 5.31445,5.31445 5.3149557,5.3149557 0 0 1 -5.31445,5.31641 5.3149557,5.3149557 0 0 1 -5.31446,-5.31641 5.3149557,5.3149557 0 0 1 5.31446,-5.31445 z m 38.97656,0 a 5.3149557,5.3149557 0 0 1 5.31445,5.31445 5.3149557,5.3149557 0 0 1 -5.31445,5.31641 5.3149557,5.3149557 0 0 1 -5.31641,-5.31641 5.3149557,5.3149557 0 0 1 5.31641,-5.31445 z m 116.92773,0 a 5.3149557,5.3149557 0 0 1 5.31641,5.31445 5.3149557,5.3149557 0 0 1 -5.31641,5.31641 5.3149557,5.3149557 0 0 1 -5.31445,-5.31641 5.3149557,5.3149557 0 0 1 5.31445,-5.31445 z m 38.97657,0 a 5.3149557,5.3149557 0 0 1 5.3164,5.31445 5.3149557,5.3149557 0 0 1 -5.3164,5.31641 5.3149557,5.3149557 0 0 1 -5.31446,-5.31641 5.3149557,5.3149557 0 0 1 5.31446,-5.31445 z m 116.92968,0 a 5.3149557,5.3149557 0 0 1 5.31446,5.31445 5.3149557,5.3149557 0 0 1 -5.31446,5.31641 5.3149557,5.3149557 0 0 1 -5.31445,-5.31641 5.3149557,5.3149557 0 0 1 5.31445,-5.31445 z m 38.97657,0 a 5.3149557,5.3149557 0 0 1 5.31445,5.31445 5.3149557,5.3149557 0 0 1 -5.31445,5.31641 5.3149557,5.3149557 0 0 1 -5.31446,-5.31641 5.3149557,5.3149557 0 0 1 5.31446,-5.31445 z m 116.92968,0 a 5.3149557,5.3149557 0 0 1 5.31446,5.31445 5.3149557,5.3149557 0 0 1 -5.31446,5.31641 5.3149557,5.3149557 0 0 1 -5.3164,-5.31641 5.3149557,5.3149557 0 0 1 5.3164,-5.31445 z"
       id="rect6423-8-9-6-4-2-1"
       inkscape:connector-curvature="0" />
  </g>
  <g
     inkscape:groupmode="layer"
     id="layer7"
     inkscape:label="Material Button">
    <path
       transform="translate(7.0866142,-740.55109)"
       style="display:inline;fill:none;fill-opacity:0.24747476;stroke:#ff0000;stroke-width:0.35433072;stroke-miterlimit:4;stroke-dasharray:none;stroke-opacity:1"
       d="M 145.27558,666.14172 A 70.866135,70.866135 0 0 1 74.409447,737.00786 70.866135,70.866135 0 0 1 3.5433121,666.14172 70.866135,70.866135 0 0 1 74.409447,595.27559 70.866135,70.866135 0 0 1 145.27558,666.14172 Z"
       id="path6915" />
  </g>
  <g
     inkscape:label="Cutout"
     inkscape:groupmode="layer"
     id="layer1"
     transform="translate(7.0866142,-740.55109)"
     style="display:inline"
     sodipodi:insensitive="true" />
  <g
     inkscape:groupmode="layer"
     id="layer4"
     inkscape:label="Holes"
     style="display:inline"
     sodipodi:insensitive="true" />
  <g
     inkscape:groupmode="layer"
     id="layer5"
     inkscape:label="Text"
     style="display:inline">
    <g
       transform="matrix(0,-1,1,0,0,0)"
       style="font-style:normal;font-weight:normal;font-size:40px;line-height:125%;font-family:sans-serif;letter-spacing:0px;word-spacing:0px;display:inline;fill:#000000;fill-opacity:1;stroke:none;stroke-width:1px;stroke-linecap:butt;stroke-linejoin:miter;stroke-opacity:1"
       id="text6164-7">
      <path
         d="m -124.58876,536.33759 0,2.69775 1.19628,0 q 0.8606,0 1.2024,-0.29297 0.3479,-0.29297 0.3479,-1.01929 0,-0.73852 -0.36011,-1.06201 -0.36011,-0.32348 -1.19019,-0.32348 l -1.19628,0 z m 0,-3.55225 0,2.11792 1.19628,0 q 0.6836,0 0.97046,-0.24414 0.29297,-0.24414 0.29297,-0.80567 0,-0.56152 -0.29907,-0.81176 -0.29297,-0.25635 -0.96436,-0.25635 l -1.19628,0 z m -1.73951,-1.43433 2.93579,0 q 1.51978,0 2.28272,0.57984 0.76904,0.57373 0.76904,1.72119 0,0.8789 -0.45166,1.37329 -0.45166,0.49438 -1.32446,0.57373 1.0437,0.10376 1.5686,0.7019 0.53101,0.59815 0.53101,1.67237 0,1.31836 -0.79346,1.9104 -0.79346,0.59204 -2.58179,0.59204 l -2.93579,0 0,-9.12476 z"
         style="font-style:normal;font-variant:normal;font-weight:bold;font-stretch:normal;font-size:12.5px;font-family:monospace;-inkscape-font-specification:'monospace Bold';text-align:end;text-anchor:end;fill:#000000"
         id="path13787" />
      <path
         d="m -118.59511,538.08929 0,-4.44946 1.78833,0 0,4.17481 q 0,0.73852 0.20752,1.0559 0.20752,0.31739 0.6897,0.31739 0.48217,0 0.75073,-0.42725 0.27466,-0.42724 0.27466,-1.19629 l 0,-3.92456 1.78833,0 0,6.83594 -1.78833,0 0,-1.01318 q -0.18921,0.56762 -0.64698,0.8789 -0.45166,0.31128 -1.09253,0.31128 -0.97656,0 -1.47705,-0.64697 -0.49438,-0.64697 -0.49438,-1.91651 z"
         style="font-style:normal;font-variant:normal;font-weight:bold;font-stretch:normal;font-size:12.5px;font-family:monospace;-inkscape-font-specification:'monospace Bold';text-align:end;text-anchor:end;fill:#000000"
         id="path13789" />
      <path
         d="m -107.84072,531.69891 0,1.94092 2.33765,0 0,1.37329 -2.33765,0 0,3.23487 q 0,0.45776 0.21973,0.65918 0.22583,0.19531 0.74463,0.19531 l 1.37329,0 0,1.37329 -1.50147,0 q -1.53808,0 -2.08129,-0.48828 -0.54322,-0.49439 -0.54322,-1.82495 l 0,-3.14942 -1.7456,0 0,-1.37329 1.7456,0 0,-1.94092 1.78833,0 z"
         style="font-style:normal;font-variant:normal;font-weight:bold;font-stretch:normal;font-size:12.5px;font-family:monospace;-inkscape-font-specification:'monospace Bold';text-align:end;text-anchor:end;fill:#000000"
         id="path13791" />
      <path
         d="m -100.32119,531.69891 0,1.94092 2.33765,0 0,1.37329 -2.33765,0 0,3.23487 q 0,0.45776 0.21973,0.65918 0.225831,0.19531 0.744629,0.19531 l 1.373291,0 0,1.37329 -1.501464,0 q -1.538086,0 -2.081296,-0.48828 -0.54322,-0.49439 -0.54322,-1.82495 l 0,-3.14942 -1.7456,0 0,-1.37329 1.7456,0 0,-1.94092 1.78833,0 z"
         style="font-style:normal;font-variant:normal;font-weight:bold;font-stretch:normal;font-size:12.5px;font-family:monospace;-inkscape-font-specification:'monospace Bold';text-align:end;text-anchor:end;fill:#000000"
         id="path13793" />
      <path
         d="m -93.253315,534.92767 q -0.640869,0 -1.00708,0.56763 -0.366211,0.56152 -0.366211,1.5686 0,1.00708 0.366211,1.57471 0.366211,0.56152 1.00708,0.56152 0.646973,0 1.013184,-0.56152 0.366211,-0.56763 0.366211,-1.57471 0,-1.00708 -0.366211,-1.5686 -0.366211,-0.56763 -1.013184,-0.56763 z m -3.161621,2.13623 q 0,-1.65405 0.854492,-2.6184 0.860596,-0.97046 2.307129,-0.97046 1.452637,0 2.307129,0.97046 0.860596,0.96435 0.860596,2.6184 0,1.65406 -0.860596,2.62452 -0.854492,0.96435 -2.307129,0.96435 -1.446533,0 -2.307129,-0.96435 -0.854492,-0.97046 -0.854492,-2.62452 z"
         style="font-style:normal;font-variant:normal;font-weight:bold;font-stretch:normal;font-size:12.5px;font-family:monospace;-inkscape-font-specification:'monospace Bold';text-align:end;text-anchor:end;fill:#000000"
         id="path13795" />
      <path
         d="m -82.956684,536.03851 0,4.43726 -1.776123,0 0,-4.1626 q 0,-0.74463 -0.213623,-1.06201 -0.20752,-0.32349 -0.683594,-0.32349 -0.482178,0 -0.762939,0.43335 -0.274659,0.43335 -0.274659,1.2024 l 0,3.91235 -1.776123,0 0,-6.83594 1.776123,0 0,1.02539 q 0.189209,-0.56762 0.646973,-0.8789 0.457764,-0.31128 1.104736,-0.31128 0.970459,0 1.464844,0.64697 0.494385,0.64087 0.494385,1.9165 z"
         style="font-style:normal;font-variant:normal;font-weight:bold;font-stretch:normal;font-size:12.5px;font-family:monospace;-inkscape-font-specification:'monospace Bold';text-align:end;text-anchor:end;fill:#000000"
         id="path13797" />
      <path
         d="m -69.791401,540.47577 -1.800537,0 0,-7.53784 -2.313232,0 0,-1.57471 6.427002,0 0,1.57471 -2.313233,0 0,7.53784 z"
         style="font-style:normal;font-variant:normal;font-weight:bold;font-stretch:normal;font-size:12.5px;font-family:monospace;-inkscape-font-specification:'monospace Bold';text-align:end;text-anchor:end;fill:#000000"
         id="path13799" />
      <path
         d="m -60.39809,536.03851 0,4.43726 -1.776123,0 0,-4.1626 q 0,-0.73852 -0.213623,-1.05591 -0.20752,-0.31738 -0.683594,-0.31738 -0.488281,0 -0.76294,0.43335 -0.274658,0.42725 -0.274658,1.19019 l 0,3.91235 -1.776123,0 0,-9.49707 1.776123,0 0,3.68652 q 0.189209,-0.56762 0.646973,-0.8789 0.457763,-0.31128 1.104736,-0.31128 0.970459,0 1.464844,0.64697 0.494385,0.64087 0.494385,1.9165 z"
         style="font-style:normal;font-variant:normal;font-weight:bold;font-stretch:normal;font-size:12.5px;font-family:monospace;-inkscape-font-specification:'monospace Bold';text-align:end;text-anchor:end;fill:#000000"
         id="path13801" />
      <path
         d="m -58.066547,533.63983 3.540039,0 0,5.46265 2.221679,0 0,1.37329 -6.237793,0 0,-1.37329 2.227784,0 0,-4.08936 -1.751709,0 0,-1.37329 z m 1.751709,-3.32641 1.78833,0 0,2.0874 -1.78833,0 0,-2.0874 z"
         style="font-style:normal;font-variant:normal;font-weight:bold;font-stretch:normal;font-size:12.5px;font-family:monospace;-inkscape-font-specification:'monospace Bold';text-align:end;text-anchor:end;fill:#000000"
         id="path13803" />
      <path
         d="m -45.359028,536.03851 0,4.43726 -1.776123,0 0,-4.1626 q 0,-0.74463 -0.213623,-1.06201 -0.207519,-0.32349 -0.683594,-0.32349 -0.482177,0 -0.762939,0.43335 -0.274658,0.43335 -0.274658,1.2024 l 0,3.91235 -1.776123,0 0,-6.83594 1.776123,0 0,1.02539 q 0.189209,-0.56762 0.646972,-0.8789 0.457764,-0.31128 1.104737,-0.31128 0.970459,0 1.464843,0.64697 0.494385,0.64087 0.494385,1.9165 z"
         style="font-style:normal;font-variant:normal;font-weight:bold;font-stretch:normal;font-size:12.5px;font-family:monospace;-inkscape-font-specification:'monospace Bold';text-align:end;text-anchor:end;fill:#000000"
         id="path13805" />
      <path
         d="m -39.475239,536.94794 q 0,-0.91553 -0.3479,-1.46485 -0.347901,-0.55542 -0.915528,-0.55542 -0.561523,0 -0.909423,0.54932 -0.341797,0.54932 -0.341797,1.47095 0,0.92773 0.341797,1.47705 0.3479,0.54931 0.909423,0.54931 0.567627,0 0.915528,-0.54931 0.3479,-0.55542 0.3479,-1.47705 z m 1.78833,3.01513 q 0,1.64185 -0.744629,2.36817 -0.738525,0.73242 -2.404785,0.73242 -0.561523,0 -1.11084,-0.0855 -0.549316,-0.0793 -1.116943,-0.25024 l 0,-1.64185 q 0.506592,0.28076 1.031494,0.41504 0.524902,0.13428 1.080322,0.13428 0.756836,0 1.116944,-0.36011 0.360107,-0.354 0.360107,-1.11084 l 0,-0.73853 q -0.262451,0.48829 -0.695801,0.72632 -0.433349,0.23804 -1.055908,0.23804 -1.171875,0 -1.861572,-0.91553 -0.689697,-0.91552 -0.689697,-2.48413 0,-1.62353 0.689697,-2.57568 0.689697,-0.95215 1.849365,-0.95215 0.585938,0 1.043701,0.27466 0.457764,0.27466 0.720215,0.77514 l 0,-0.8728 1.78833,0 0,6.32324 z"
         style="font-style:normal;font-variant:normal;font-weight:bold;font-stretch:normal;font-size:12.5px;font-family:monospace;-inkscape-font-specification:'monospace Bold';text-align:end;text-anchor:end;fill:#000000"
         id="path13807" />
      <path
         d="m -44.85854,549.26483 -2.172851,6.83594 -2.203369,0 -2.172852,-6.83594 1.812744,0 1.458741,5.33447 1.464843,-5.33447 1.812744,0 z"
         style="font-style:normal;font-variant:normal;font-weight:bold;font-stretch:normal;font-size:12.5px;font-family:monospace;-inkscape-font-specification:'monospace Bold';text-align:end;text-anchor:end;fill:#000000"
         id="path13809" />
      <path
         d="m -43.228901,554.51385 2.01416,0 0,-5.9143 -1.873779,0.46387 0,-1.62354 1.885986,-0.45166 1.739502,0 0,7.52563 2.01416,0 0,1.58692 -5.780029,0 0,-1.58692 z"
         style="font-style:normal;font-variant:normal;font-weight:bold;font-stretch:normal;font-size:12.5px;font-family:monospace;-inkscape-font-specification:'monospace Bold';text-align:end;text-anchor:end;fill:#000000"
         id="path13811" />
      <path
         d="m -97.389057,564.10429 q -0.448609,0 -0.704956,0.39734 -0.256348,0.39307 -0.256348,1.09802 0,0.70496 0.256348,1.1023 0.256347,0.39307 0.704956,0.39307 0.452881,0 0.709228,-0.39307 0.256348,-0.39734 0.256348,-1.1023 0,-0.70495 -0.256348,-1.09802 -0.256347,-0.39734 -0.709228,-0.39734 z m -2.213135,1.49536 q 0,-1.15783 0.598145,-1.83288 0.602417,-0.67932 1.61499,-0.67932 1.016846,0 1.61499,0.67932 0.602417,0.67505 0.602417,1.83288 0,1.15784 -0.602417,1.83716 -0.598144,0.67505 -1.61499,0.67505 -1.012573,0 -1.61499,-0.67505 -0.598145,-0.67932 -0.598145,-1.83716 z"
         style="font-style:normal;font-variant:normal;font-weight:bold;font-stretch:normal;font-size:8.75px;font-family:monospace;-inkscape-font-specification:'monospace Bold';text-align:end;text-anchor:end;fill:#000000"
         id="path13813" />
      <path
         d="m -94.073627,566.31743 0,-3.11463 1.251831,0 0,2.92237 q 0,0.51696 0.145263,0.73913 0.145264,0.22217 0.482788,0.22217 0.337525,0 0.525513,-0.29907 0.192261,-0.29907 0.192261,-0.8374 l 0,-2.7472 1.251831,0 0,4.78516 -1.251831,0 0,-0.70923 q -0.132447,0.39734 -0.452881,0.61524 -0.316162,0.21789 -0.764771,0.21789 -0.683593,0 -1.033935,-0.45288 -0.346069,-0.45288 -0.346069,-1.34155 z"
         style="font-style:normal;font-variant:normal;font-weight:bold;font-stretch:normal;font-size:8.75px;font-family:monospace;-inkscape-font-specification:'monospace Bold';text-align:end;text-anchor:end;fill:#000000"
         id="path13815" />
      <path
         d="m -86.545551,561.84416 0,1.35864 1.636352,0 0,0.96131 -1.636352,0 0,2.2644 q 0,0.32044 0.153808,0.46143 0.158081,0.13672 0.521241,0.13672 l 0.961303,0 0,0.9613 -1.051025,0 q -1.07666,0 -1.456909,-0.3418 -0.380249,-0.34607 -0.380249,-1.27746 l 0,-2.20459 -1.221924,0 0,-0.96131 1.221924,0 0,-1.35864 1.251831,0 z"
         style="font-style:normal;font-variant:normal;font-weight:bold;font-stretch:normal;font-size:8.75px;font-family:monospace;-inkscape-font-specification:'monospace Bold';text-align:end;text-anchor:end;fill:#000000"
         id="path13817" />
      <path
         d="m -81.598042,564.10429 q -0.448608,0 -0.704956,0.39734 -0.256347,0.39307 -0.256347,1.09802 0,0.70496 0.256347,1.1023 0.256348,0.39307 0.704956,0.39307 0.452881,0 0.709229,-0.39307 0.256348,-0.39734 0.256348,-1.1023 0,-0.70495 -0.256348,-1.09802 -0.256348,-0.39734 -0.709229,-0.39734 z m -2.213134,1.49536 q 0,-1.15783 0.598144,-1.83288 0.602417,-0.67932 1.61499,-0.67932 1.016846,0 1.614991,0.67932 0.602417,0.67505 0.602417,1.83288 0,1.15784 -0.602417,1.83716 -0.598145,0.67505 -1.614991,0.67505 -1.012573,0 -1.61499,-0.67505 -0.598144,-0.67932 -0.598144,-1.83716 z"
         style="font-style:normal;font-variant:normal;font-weight:bold;font-stretch:normal;font-size:8.75px;font-family:monospace;-inkscape-font-specification:'monospace Bold';text-align:end;text-anchor:end;fill:#000000"
         id="path13819" />
      <path
         d="m -75.808857,562.7841 0,0.4187 1.469727,0 0,0.96131 -1.469727,0 0,3.82385 -1.251831,0 0,-3.82385 -1.162109,0 0,-0.96131 1.162109,0 0,-0.33325 q 0,-0.86304 0.358887,-1.19629 0.358886,-0.33325 1.333008,-0.33325 l 1.029663,0 0,0.9613 -0.978394,0 q -0.281982,0 -0.384521,0.10254 -0.09827,0.10254 -0.106812,0.38025 z"
         style="font-style:normal;font-variant:normal;font-weight:bold;font-stretch:normal;font-size:8.75px;font-family:monospace;-inkscape-font-specification:'monospace Bold';text-align:end;text-anchor:end;fill:#000000"
         id="path13821" />
      <path
         d="m -70.754536,561.84416 0,1.35864 1.636353,0 0,0.96131 -1.636353,0 0,2.2644 q 0,0.32044 0.153809,0.46143 0.158081,0.13672 0.52124,0.13672 l 0.961304,0 0,0.9613 -1.051026,0 q -1.07666,0 -1.456909,-0.3418 -0.380249,-0.34607 -0.380249,-1.27746 l 0,-2.20459 -1.221924,0 0,-0.96131 1.221924,0 0,-1.35864 1.251831,0 z"
         style="font-style:normal;font-variant:normal;font-weight:bold;font-stretch:normal;font-size:8.75px;font-family:monospace;-inkscape-font-specification:'monospace Bold';text-align:end;text-anchor:end;fill:#000000"
         id="path13823" />
      <path
         d="m -63.863056,564.88188 0,3.10608 -1.243286,0 0,-2.91382 q 0,-0.51697 -0.149536,-0.73913 -0.145264,-0.22217 -0.478516,-0.22217 -0.341797,0 -0.534058,0.30334 -0.19226,0.29907 -0.19226,0.83313 l 0,2.73865 -1.243287,0 0,-6.64795 1.243287,0 0,2.58057 q 0.132446,-0.39734 0.45288,-0.61524 0.320435,-0.21789 0.773316,-0.21789 0.679321,0 1.02539,0.45288 0.34607,0.44861 0.34607,1.34155 z"
         style="font-style:normal;font-variant:normal;font-weight:bold;font-stretch:normal;font-size:8.75px;font-family:monospace;-inkscape-font-specification:'monospace Bold';text-align:end;text-anchor:end;fill:#000000"
         id="path13825" />
      <path
         d="m -58.466938,567.75297 q -0.435791,0.17945 -0.888672,0.26917 -0.452881,0.0897 -0.957031,0.0897 -1.200562,0 -1.837158,-0.64087 -0.632325,-0.64514 -0.632325,-1.85425 0,-1.17065 0.610962,-1.84997 0.610962,-0.67932 1.66626,-0.67932 1.063843,0 1.64917,0.63232 0.5896,0.62805 0.5896,1.77307 l 0,0.50843 -3.242798,0 q 0.0043,0.56396 0.333252,0.84167 0.328979,0.27771 0.982666,0.27771 0.431518,0 0.850219,-0.1239 0.418702,-0.1239 0.875855,-0.39307 l 0,1.14929 z m -1.05957,-2.69165 q -0.0085,-0.4956 -0.256348,-0.74768 -0.24353,-0.25634 -0.722046,-0.25634 -0.431518,0 -0.687866,0.26489 -0.256348,0.26062 -0.303345,0.74341 l 1.969605,-0.004 z"
         style="font-style:normal;font-variant:normal;font-weight:bold;font-stretch:normal;font-size:8.75px;font-family:monospace;-inkscape-font-specification:'monospace Bold';text-align:end;text-anchor:end;fill:#000000"
         id="path13827" />
      <path
         d="m -54.279926,565.6082 q 0,-0.69214 -0.230713,-1.08521 -0.230713,-0.39306 -0.636597,-0.39306 -0.405884,0 -0.640869,0.39306 -0.234985,0.39307 -0.234985,1.08521 0,0.69214 0.234985,1.0852 0.234985,0.39307 0.640869,0.39307 0.405884,0 0.636597,-0.39307 0.230713,-0.39306 0.230713,-1.0852 z m -1.743164,-1.72608 q 0.230713,-0.39733 0.534057,-0.59387 0.307617,-0.2008 0.692139,-0.2008 0.85022,0 1.307373,0.64941 0.461426,0.64942 0.461426,1.86279 0,1.19629 -0.452881,1.85425 -0.452881,0.65796 -1.273193,0.65796 -0.431519,0 -0.751954,-0.20935 -0.320434,-0.20935 -0.516967,-0.62378 l 0,0.70923 -1.247559,0 0,-6.64795 1.247559,0 0,2.54211 z"
         style="font-style:normal;font-variant:normal;font-weight:bold;font-stretch:normal;font-size:8.75px;font-family:monospace;-inkscape-font-specification:'monospace Bold';text-align:end;text-anchor:end;fill:#000000"
         id="path13829" />
      <path
         d="m -50.994404,565.99272 0,-3.69141 -1.268921,0 0,-0.9613 2.520752,0 0,4.65271 q 0,0.56397 0.175171,0.79895 0.175171,0.23499 0.593872,0.23499 l 0.999756,0 0,0.9613 -1.350098,0 q -0.892944,0 -1.281738,-0.46143 -0.388794,-0.46142 -0.388794,-1.53381 z"
         style="font-style:normal;font-variant:normal;font-weight:bold;font-stretch:normal;font-size:8.75px;font-family:monospace;-inkscape-font-specification:'monospace Bold';text-align:end;text-anchor:end;fill:#000000"
         id="path13831" />
      <path
         d="m -44.752338,564.10429 q -0.448609,0 -0.704956,0.39734 -0.256348,0.39307 -0.256348,1.09802 0,0.70496 0.256348,1.1023 0.256347,0.39307 0.704956,0.39307 0.45288,0 0.709228,-0.39307 0.256348,-0.39734 0.256348,-1.1023 0,-0.70495 -0.256348,-1.09802 -0.256348,-0.39734 -0.709228,-0.39734 z m -2.213135,1.49536 q 0,-1.15783 0.598144,-1.83288 0.602417,-0.67932 1.614991,-0.67932 1.016845,0 1.61499,0.67932 0.602417,0.67505 0.602417,1.83288 0,1.15784 -0.602417,1.83716 -0.598145,0.67505 -1.61499,0.67505 -1.012574,0 -1.614991,-0.67505 -0.598144,-0.67932 -0.598144,-1.83716 z"
         style="font-style:normal;font-variant:normal;font-weight:bold;font-stretch:normal;font-size:8.75px;font-family:monospace;-inkscape-font-specification:'monospace Bold';text-align:end;text-anchor:end;fill:#000000"
         id="path13833" />
      <path
         d="m -37.228535,563.2028 -1.610717,2.29004 1.751709,2.49512 -1.461182,0 -0.939942,-1.61072 -0.935668,1.61072 -1.461182,0 1.768799,-2.49512 -1.627808,-2.29004 1.461182,0 0.794677,1.42701 0.798951,-1.42701 1.461181,0 z"
         style="font-style:normal;font-variant:normal;font-weight:bold;font-stretch:normal;font-size:8.75px;font-family:monospace;-inkscape-font-specification:'monospace Bold';text-align:end;text-anchor:end;fill:#000000"
         id="path13835" />
    </g>
    <g
       style="display:inline;fill:#000000"
       id="g5904"
       transform="matrix(0,-1,0.99999996,0,439.20291,666.22687)">
      <g
         id="g4535"
         transform="translate(0,2.0000001)">
        <path
           style="fill:#000000"
           inkscape:connector-curvature="0"
           d="m 544.99996,115.37003 c -2.43024,0 -4.56881,0.89814 -6.22144,2.57255 -1.70134,1.72304 -2.62479,3.95595 -2.62479,6.28558 0,2.35423 0.89909,4.5385 2.60043,6.23723 1.70134,1.699 3.91269,2.62118 6.2458,2.62118 2.33283,0 4.59317,-0.92218 6.34293,-2.64522 1.65263,-1.62605 2.52738,-3.786 2.52738,-6.21319 0,-2.40259 -0.87475,-4.58658 -2.55173,-6.26126 -1.70106,-1.699 -3.88834,-2.59687 -6.31858,-2.59687 z m 0.0241,1.60173 c 1.99302,0 3.76713,0.75222 5.15216,2.13591 1.36096,1.35881 2.08987,3.15481 2.08987,5.12049 0,1.99 -0.70483,3.73764 -2.06551,5.07241 -1.43402,1.40745 -3.28091,2.15996 -5.17652,2.15996 -1.91967,0 -3.71814,-0.75223 -5.10345,-2.13592 -1.38531,-1.38341 -2.16292,-3.20345 -2.16292,-5.09645 0,-1.91704 0.77761,-3.73708 2.16292,-5.14509 1.36096,-1.38313 3.11072,-2.11131 5.10345,-2.11131 z"
           id="path5303" />
        <path
           style="fill:#000000"
           inkscape:connector-curvature="0"
           id="c"
           d="m 544.90983,122.75614 c -0.50105,-0.9124 -1.35592,-1.27551 -2.34823,-1.27551 -1.44437,0 -2.59399,1.0203 -2.59399,2.74725 0,1.75631 1.08076,2.74753 2.64298,2.74753 1.00238,0 1.85725,-0.54956 2.32863,-1.3834 l -1.10036,-0.55935 c -0.24576,0.58842 -0.61917,0.76536 -1.09055,0.76536 -0.81568,0 -1.18909,-0.67703 -1.18909,-1.57014 0,-0.89255 0.31462,-1.56986 1.18909,-1.56986 0.23569,0 0.70735,0.12747 0.98251,0.71645 l 1.17901,-0.61833 z" />
        <use
           style="fill:#000000"
           height="100%"
           width="100%"
           y="0"
           x="0"
           xlink:href="#c"
           transform="translate(5.1171703,-6e-7)"
           id="use5306" />
      </g>
    </g>
    <g
       transform="matrix(1.0000392,0,0,0.99996081,7.0866142,-740.55109)"
       style="font-style:normal;font-weight:normal;font-size:40.00154495px;line-height:125%;font-family:sans-serif;letter-spacing:0px;word-spacing:0px;display:inline;fill:#000000;fill-opacity:1;stroke:none;stroke-width:1px;stroke-linecap:butt;stroke-linejoin:miter;stroke-opacity:1"
       id="text6164-3">
      <path
         d="m 341.76286,767.68269 5.02461,0 0,1.24517 -6.64332,0 0,-1.24517 q 1.36968,-1.44293 2.39511,-2.54893 1.02543,-1.106 1.41363,-1.56011 0.73245,-0.89359 0.98881,-1.44293 0.25635,-0.55666 0.25635,-1.1353 0,-0.91556 -0.54201,-1.4356 -0.53469,-0.52004 -1.47222,-0.52004 -0.66653,0 -1.39898,0.24171 -0.73245,0.24171 -1.5528,0.73245 l 0,-1.4942 q 0.75442,-0.3589 1.47955,-0.54201 0.73245,-0.18312 1.44293,-0.18312 1.60406,0 2.57822,0.85697 0.98149,0.84964 0.98149,2.23397 0,0.70316 -0.32961,1.40631 -0.32228,0.70315 -1.05473,1.55279 -0.41017,0.47609 -1.19389,1.31841 -0.7764,0.84232 -2.37314,2.51963 z"
         style="font-style:normal;font-variant:normal;font-weight:normal;font-stretch:normal;font-size:15.00057983px;font-family:monospace;-inkscape-font-specification:monospace;fill:#000000"
         id="path13784" />
    </g>
    <g
       transform="matrix(1.0000392,0,0,0.99996081,7.0866142,-740.55109)"
       style="font-style:normal;font-weight:normal;font-size:40.00154495px;line-height:125%;font-family:sans-serif;letter-spacing:0px;word-spacing:0px;display:inline;fill:#000000;fill-opacity:1;stroke:none;stroke-width:1px;stroke-linecap:butt;stroke-linejoin:miter;stroke-opacity:1"
       id="text6164-3-6">
      <path
         d="m 188.9251,762.86318 q 1.0767,0.28565 1.64801,1.0181 0.57131,0.72513 0.57131,1.81648 0,1.50885 -1.0181,2.37314 -1.01078,0.85696 -2.80529,0.85696 -0.75442,0 -1.53814,-0.13916 -0.78372,-0.13917 -1.53815,-0.40285 l 0,-1.47222 q 0.7471,0.3882 1.47223,0.57863 0.72512,0.19044 1.44293,0.19044 1.21586,0 1.86774,-0.54934 0.65188,-0.54934 0.65188,-1.58209 0,-0.95219 -0.65188,-1.50885 -0.65188,-0.56398 -1.7652,-0.56398 l -1.12797,0 0,-1.21587 1.12797,0 q 1.0181,0 1.58942,-0.4468 0.57131,-0.44679 0.57131,-1.24516 0,-0.84232 -0.53469,-1.28911 -0.52737,-0.45412 -1.50885,-0.45412 -0.65188,0 -1.34771,0.14649 -0.69583,0.14649 -1.45757,0.43947 l 0,-1.36236 q 0.88626,-0.23438 1.57476,-0.35158 0.69583,-0.11719 1.23052,-0.11719 1.59674,0 2.54893,0.8057 0.95951,0.79837 0.95951,2.1241 0,0.90092 -0.50539,1.50152 -0.49807,0.60061 -1.45758,0.84965 z"
         style="font-style:normal;font-variant:normal;font-weight:normal;font-stretch:normal;font-size:15.00057983px;font-family:monospace;-inkscape-font-specification:monospace;fill:#000000"
         id="path13781" />
    </g>
    <g
       transform="matrix(1.0000392,0,0,0.99996081,7.0866142,-740.55109)"
       style="font-style:normal;font-weight:normal;font-size:40.00154495px;line-height:125%;font-family:sans-serif;letter-spacing:0px;word-spacing:0px;display:inline;fill:#000000;fill-opacity:1;stroke:none;stroke-width:1px;stroke-linecap:butt;stroke-linejoin:miter;stroke-opacity:1"
       id="text6164-3-6-9">
      <path
         d="m 32.981756,759.34008 -3.44984,5.77904 3.44984,0 0,-5.77904 z m -0.241708,-1.3477 1.713933,0 0,7.12674 1.457576,0 0,1.20121 -1.457576,0 0,2.60753 -1.472225,0 0,-2.60753 -4.636409,0 0,-1.39898 4.394701,-6.92897 z"
         style="font-style:normal;font-variant:normal;font-weight:normal;font-stretch:normal;font-size:15.00057983px;font-family:monospace;-inkscape-font-specification:monospace;fill:#000000"
         id="path13778" />
    </g>
    <g
       transform="matrix(1.0000392,0,0,0.99996081,7.0866142,-740.55109)"
       style="font-style:normal;font-weight:normal;font-size:40.00154495px;line-height:125%;font-family:sans-serif;text-align:end;letter-spacing:0px;word-spacing:0px;text-anchor:end;display:inline;fill:#000000;fill-opacity:1;stroke:none;stroke-width:1px;stroke-linecap:butt;stroke-linejoin:miter;stroke-opacity:1"
       id="text6164-3-6-1">
      <path
         d="m 188.9251,879.79689 q 1.07671,0.28566 1.64802,1.01811 0.57131,0.72512 0.57131,1.81648 0,1.50884 -1.01811,2.37313 -1.01078,0.85697 -2.80528,0.85697 -0.75442,0 -1.53815,-0.13917 -0.78372,-0.13916 -1.53814,-0.40284 l 0,-1.47223 q 0.7471,0.3882 1.47222,0.57864 0.72513,0.19044 1.44293,0.19044 1.21587,0 1.86775,-0.54934 0.65188,-0.54934 0.65188,-1.58209 0,-0.95219 -0.65188,-1.50885 -0.65188,-0.56399 -1.76521,-0.56399 l -1.12797,0 0,-1.21587 1.12797,0 q 1.01811,0 1.58942,-0.44679 0.57131,-0.4468 0.57131,-1.24517 0,-0.84231 -0.53469,-1.28911 -0.52736,-0.45412 -1.50884,-0.45412 -0.65189,0 -1.34771,0.14649 -0.69583,0.14649 -1.45758,0.43947 l 0,-1.36235 q 0.88627,-0.23439 1.57477,-0.35158 0.69583,-0.11719 1.23052,-0.11719 1.59674,0 2.54892,0.80569 0.95951,0.79837 0.95951,2.12411 0,0.90091 -0.50539,1.50152 -0.49807,0.60061 -1.45758,0.84964 z"
         style="font-style:normal;font-variant:normal;font-weight:normal;font-stretch:normal;font-size:15.00057983px;font-family:monospace;-inkscape-font-specification:monospace;text-align:end;text-anchor:end;fill:#000000"
         id="path13773" />
      <path
         d="m 198.98897,881.55477 q 0,-1.56744 -0.49807,-2.36581 -0.49806,-0.79837 -1.47222,-0.79837 -0.98148,0 -1.48687,0.80569 -0.50539,0.79837 -0.50539,2.35849 0,1.5528 0.50539,2.35849 0.50539,0.8057 1.48687,0.8057 0.97416,0 1.47222,-0.79837 0.49807,-0.79837 0.49807,-2.36582 z m -3.96255,-3.06164 q 0.32227,-0.60061 0.88626,-0.92289 0.57131,-0.32227 1.31841,-0.32227 1.47955,0 2.32919,1.14262 0.84964,1.1353 0.84964,3.13489 0,2.02888 -0.85696,3.18615 -0.84964,1.14995 -2.33652,1.14995 -0.73245,0 -1.29644,-0.31495 -0.55666,-0.32228 -0.89358,-0.93021 l 0,1.03275 -1.34771,0 0,-11.39692 1.34771,0 0,4.24088 z"
         style="font-style:normal;font-variant:normal;font-weight:normal;font-stretch:normal;font-size:15.00057983px;font-family:monospace;-inkscape-font-specification:monospace;text-align:end;text-anchor:end;fill:#000000"
         id="path13775" />
    </g>
    <g
       transform="scale(1.0000378,0.99996222)"
       inkscape:transform-center-x="0.5"
       inkscape:transform-center-y="-10.5"
       style="font-style:normal;font-weight:normal;font-size:40.00154495px;line-height:125%;font-family:sans-serif;letter-spacing:0px;word-spacing:0px;display:inline;fill:#000000;fill-opacity:1;stroke:none;stroke-width:1px;stroke-linecap:butt;stroke-linejoin:miter;stroke-opacity:1"
       id="text6164-3-6-9-2-0">
      <path
         d="m 191.33135,173.32355 6.88504,0 0,0.62991 -3.91129,10.30557 -1.54547,0 3.80874,-9.69031 -5.23702,0 0,-1.24517 z"
         style="font-style:normal;font-variant:normal;font-weight:normal;font-stretch:normal;font-size:15.00057983px;font-family:monospace;-inkscape-font-specification:monospace"
         id="path13770" />
    </g>
    <g
       transform="scale(1.0000378,0.99996222)"
       inkscape:transform-center-x="116.5"
       inkscape:transform-center-y="4"
       style="font-style:normal;font-weight:normal;font-size:40.00154495px;line-height:125%;font-family:sans-serif;letter-spacing:0px;word-spacing:0px;display:inline;fill:#000000;fill-opacity:1;stroke:none;stroke-width:1px;stroke-linecap:butt;stroke-linejoin:miter;stroke-opacity:1"
       id="text6164-3-6-9-2-3">
      <path
         d="m 353.51499,173.35286 0,1.36236 q -0.46144,-0.27101 -0.98148,-0.41018 -0.52004,-0.14649 -1.08403,-0.14649 -1.4063,0 -2.13143,1.06206 -0.72513,1.05472 -0.72513,3.11291 0.35158,-0.73245 0.97416,-1.12065 0.62259,-0.39552 1.42828,-0.39552 1.58209,0 2.44639,0.97416 0.87161,0.96683 0.87161,2.74668 0,1.77253 -0.89359,2.74669 -0.89359,0.97416 -2.5123,0.97416 -1.90437,0 -2.79064,-1.36236 -0.88626,-1.36968 -0.88626,-4.3068 0,-2.76866 1.06205,-4.21892 1.06938,-1.45757 3.09094,-1.45757 0.54201,0 1.08403,0.11719 0.54201,0.10987 1.0474,0.32228 z m -2.63682,4.62176 q -0.94486,0 -1.48687,0.68118 -0.54202,0.68118 -0.54202,1.88239 0,1.20122 0.54202,1.8824 0.54201,0.68118 1.48687,0.68118 0.98148,0 1.47955,-0.64456 0.49806,-0.65188 0.49806,-1.91902 0,-1.27446 -0.49806,-1.91902 -0.49807,-0.64455 -1.47955,-0.64455 z"
         style="font-style:normal;font-variant:normal;font-weight:normal;font-stretch:normal;font-size:15.00057983px;font-family:monospace;-inkscape-font-specification:monospace"
         id="path13767" />
    </g>
    <g
       transform="scale(1.0000378,0.99996222)"
       inkscape:transform-center-x="136.5"
       inkscape:transform-center-y="3.5"
       style="font-style:normal;font-weight:normal;font-size:40.00154495px;line-height:125%;font-family:sans-serif;letter-spacing:0px;word-spacing:0px;display:inline;fill:#000000;fill-opacity:1;stroke:none;stroke-width:1px;stroke-linecap:butt;stroke-linejoin:miter;stroke-opacity:1"
       id="text6164-3-6-9-2-06">
      <path
         d="m 503.59851,173.11115 5.53732,0 0,1.24516 -4.18961,0 0,2.6881 q 0.31495,-0.11719 0.6299,-0.16847 0.32228,-0.0586 0.64456,-0.0586 1.69928,0 2.69542,1.00345 0.99613,1.00346 0.99613,2.71739 0,1.72859 -1.0474,2.72472 -1.04008,0.99613 -2.84924,0.99613 -0.87161,0 -1.59674,-0.11719 -0.7178,-0.11719 -1.28911,-0.35158 l 0,-1.50152 q 0.67385,0.36623 1.35503,0.54934 0.68118,0.17579 1.39166,0.17579 1.22319,0 1.8824,-0.64456 0.66653,-0.64456 0.66653,-1.83113 0,-1.17192 -0.68851,-1.8238 -0.68118,-0.65188 -1.90437,-0.65188 -0.59328,0 -1.15727,0.13917 -0.56399,0.13184 -1.0767,0.40285 l 0,-5.49338 z"
         style="font-style:normal;font-variant:normal;font-weight:normal;font-stretch:normal;font-size:15.00057983px;font-family:monospace;-inkscape-font-specification:monospace"
         id="path13764" />
    </g>
  </g>
  <g
     inkscape:groupmode="layer"
     id="layer6"
     inkscape:label="Screws"
     style="display:inline">
    <path
       transform="translate(7.0866142,-740.55109)"
       style="display:inline;opacity:1;fill:none;fill-opacity:1;stroke:#0000ff;stroke-width:0.35433072;stroke-linejoin:miter;stroke-miterlimit:4;stroke-dasharray:none;stroke-opacity:1"
       d="m 478.12822,754.01594 0,0.0176 -5.51367,9.54883 5.51367,9.55078 0,0.0176 0.01,0 11.03711,0 0,-0.006 0.01,0.006 5.52344,-9.56836 -5.52344,-9.56641 -0.01,0.006 0,-0.006 -11.03711,0 -0.01,0 z"
       id="rect5967"
       inkscape:connector-curvature="0" />
    <path
       transform="translate(7.0866142,-740.55109)"
       style="display:inline;opacity:1;fill:none;fill-opacity:1;stroke:#0000ff;stroke-width:0.35433072;stroke-linejoin:miter;stroke-miterlimit:4;stroke-dasharray:none;stroke-opacity:1"
       d="m 595.05596,754.01594 0,0.0195 -5.51172,9.54688 5.51172,9.54882 0,0.0195 0.0117,0 11.03711,0 0,-0.006 0.01,0.006 5.52344,-9.56836 -5.52344,-9.5664 -0.01,0.006 0,-0.006 -11.03711,0 -0.0117,0 z"
       id="rect5967-30"
       inkscape:connector-curvature="0" />
    <path
       transform="translate(7.0866142,-740.55109)"
       style="display:inline;opacity:1;fill:none;fill-opacity:1;stroke:#0000ff;stroke-width:0.35433072;stroke-linejoin:miter;stroke-miterlimit:4;stroke-dasharray:none;stroke-opacity:1"
       d="m 478.13799,870.94368 -0.002,0.002 -0.008,0 0,0.0156 -5.51367,9.55078 5.51367,9.54883 0,0.0176 0.01,0 11.03711,0 0,-0.006 0.01,0.006 5.52344,-9.5664 -5.52344,-9.56836 -0.01,0.006 0,-0.004 -11.0332,0 -0.004,-0.002 z"
       id="rect5967-30-6"
       inkscape:connector-curvature="0" />
    <path
       transform="translate(7.0866142,-740.55109)"
       style="display:inline;opacity:1;fill:none;fill-opacity:1;stroke:#0000ff;stroke-width:0.35433072;stroke-linejoin:miter;stroke-miterlimit:4;stroke-dasharray:none;stroke-opacity:1"
       d="m 595.06768,870.94368 -0.002,0.002 -0.01,0 0,0.0176 -5.51172,9.54883 5.51172,9.54687 0,0.0195 0.0117,0 11.03711,0 0,-0.006 0.01,0.006 5.52344,-9.5664 -5.52344,-9.56836 -0.01,0.006 0,-0.004 -11.03321,0 -0.004,-0.002 z"
       id="rect5967-30-6-9"
       inkscape:connector-curvature="0" />
    <path
       transform="translate(7.0866142,-740.55109)"
       style="display:inline;opacity:1;fill:none;fill-opacity:1;stroke:#0000ff;stroke-width:0.35433072;stroke-linejoin:miter;stroke-miterlimit:4;stroke-dasharray:none;stroke-opacity:1"
       d="m 142.44094,919.48822 a 9.5669289,9.5669289 0 0 1 -9.56693,9.56693 9.5669289,9.5669289 0 0 1 -9.56693,-9.56693 9.5669289,9.5669289 0 0 1 9.56693,-9.56693 9.5669289,9.5669289 0 0 1 9.56693,9.56693 z"
       id="path5920-3-6" />
    <path
       transform="translate(7.0866142,-740.55109)"
       style="display:inline;opacity:1;fill:none;fill-opacity:1;stroke:#0000ff;stroke-width:0.35433072;stroke-linejoin:miter;stroke-miterlimit:4;stroke-dasharray:none;stroke-opacity:1"
       d="m 25.51181,919.48822 a 9.5669289,9.5669289 0 0 1 -9.566929,9.56693 9.5669289,9.5669289 0 0 1 -9.5669284,-9.56693 9.5669289,9.5669289 0 0 1 9.5669284,-9.56693 9.5669289,9.5669289 0 0 1 9.566929,9.56693 z"
       id="path5920-3-6-1" />
    <path
       transform="translate(7.0866142,-740.55109)"
       style="display:inline;opacity:1;fill:none;fill-opacity:1;stroke:#0000ff;stroke-width:0.35433072;stroke-linejoin:miter;stroke-miterlimit:4;stroke-dasharray:none;stroke-opacity:1"
       d="m 25.51181,1036.4174 a 9.5669289,9.5669289 0 0 1 -9.566929,9.5669 9.5669289,9.5669289 0 0 1 -9.5669284,-9.5669 9.5669289,9.5669289 0 0 1 9.5669284,-9.567 9.5669289,9.5669289 0 0 1 9.566929,9.567 z"
       id="path5920-3-6-1-5" />
    <path
       transform="translate(7.0866142,-740.55109)"
       style="display:inline;opacity:1;fill:none;fill-opacity:1;stroke:#0000ff;stroke-width:0.35433072;stroke-linejoin:miter;stroke-miterlimit:4;stroke-dasharray:none;stroke-opacity:1"
       d="m 142.44094,1036.4174 a 9.5669289,9.5669289 0 0 1 -9.56693,9.5669 9.5669289,9.5669289 0 0 1 -9.56693,-9.5669 9.5669289,9.5669289 0 0 1 9.56693,-9.567 9.5669289,9.5669289 0 0 1 9.56693,9.567 z"
       id="path5920-3-6-1-5-9" />
  </g>
</svg>
